<svg viewBox="0 0 2262.93 605.65" xmlns="http://www.w3.org/2000/svg" role="img" aria-label="Yap">
  <path d="M1523.76,328.8h102.09l-36.15-97.56c-.89-2.4-2.4-6.78-4.51-13.1-2.11-6.32-4.14-12.88-6.1-19.64-1.96-6.79-3.54-11.97-4.74-15.59-1.51,6.03-3.09,12.12-4.74,18.29-1.65,6.18-3.32,11.82-4.96,16.93-1.67,5.12-3.1,9.48-4.3,13.1l-36.58,97.56ZM1951.48,276.85c6.63-9.63,9.94-22.27,9.94-37.93,0-20.78-6.61-36.28-19.87-46.52-13.24-10.23-34.17-15.35-62.78-15.35h-41.09v127.36h32.52c20.47,0,37.49-2.18,51.03-6.56,13.55-4.35,23.65-11.36,30.26-21M2003.43,237.1c0,13.26-2.19,25.98-6.56,38.17-4.36,12.2-11.52,23.12-21.45,32.75-9.94,9.64-23.18,17.24-39.75,22.81-16.57,5.58-36.89,8.36-60.96,8.36h-37.04v125.56h-40.65V142.26h85.36c42.16,0,72.86,8.28,92.13,24.83,19.27,16.57,28.92,39.91,28.92,70.01M1718.89,464.75h-42.01l-38.84-99.82h-127.83l-38.38,99.82h-41.11l126.03-323.85h36.57l125.57,323.85ZM1439.76,142.26l-107.5,197.38v125.1h-40.65v-123.31l-107.49-199.18h44.25l83.56,158.53,84.01-158.53h43.81ZM529.08,238.1l2.78,2.78-.35,11.79-3.82.7-1.39,1.39,2.78,2.78-2.78,2.77v2.78l-5.56,5.56,2.78,2.78-11.11,11.11,2.78,2.78-1.39,1.39h-2.78l-1.39,1.39,2.78,2.78-1.39,1.39-3.47.69-.7,3.47-1.39,1.39-2.78-2.77-1.39,1.38-.69,6.26-10.42,4.52-12.5-1.05-6.95-6.95v-13.89l5.56-5.55.69-3.47,4.17-1.39,3.47-6.25,5.56-8.34,3.82-6.94,2.43-8.33,2.09-20.85-5.56-5.55-.69-3.48-3.48-.69-8.33-8.33-26.4-6.26h-58.35l-33.34,4.87-44.44,11.47-55.56,21.53-12.5,1.73-2.78,2.78-2.78-2.78-9.03-3.48-2.43-7.64.35-5.55,1.38-4.17,12.51-12.5,6.94-1.73,19.45-8,6.95-1.39,5.56-5.55,18.06-4.51,47.22-13.55,33.34-5.2,29.17-1.76,2.78-2.78,2.78,2.78,2.78-2.78,45.83,6.95,13.9,3.47,5.55,2.08,11.12,5.56,4.16,1.39,15.29,15.28.69,3.47,4.17,1.39.69,3.48,5.56,5.55,2.78,19.45-2.78,2.78,2.78,2.78-2.78,2.78ZM225.91,392.28l8.34-2.78,2.78,2.78,2.77-2.78,34.74-1.73,16.67-2.44,41.66-11.11,22.23-8.33,6.95-1.39,5.55-5.56,2.78,2.78,1.39-1.39.69-3.47,3.48-.7,2.78-2.78,2.77,2.78,5.56-5.56,4.17,1.05,13.89.34,4.17,1.39,4.17,4.17,1.73,6.95-.34,5.55-1.39,4.17-9.73,9.72h-5.55l-5.56,5.56-6.95,1.39-91.68,27.79-15.28,1.38-2.78,2.78-2.77-2.78-2.78,2.78-44.46,2.78-2.78,2.78-2.77-2.78-26.4-1.73-11.11-2.44-16.67-5.88-5.56-2.44-12.5-6.95-15.29-15.28v-2.78l-5.55-5.55-1.39-9.73-2.78-8.33.35-8.34,1.04-4.17-2.78-2.78,2.78-2.77,1.39-9.73,3.12-8.33,1.05-4.17,2.77-2.78-2.77-2.78,8.33-8.33.7-6.26,3.47-.69,8.33-8.33h13.9l6.94,6.94v2.78l2.78,2.78-2.78,2.78,2.78,2.78-1.04,4.16-1.74,9.73-5.55,5.55v2.78l-5.56,5.56v25.01l12.5,12.5,4.17,1.39,11.11,5.22,11.12,2.77,18.06,1.73,2.78,2.78,2.77-2.78,2.78,2.78ZM2261.93,302.82c0-166.69-135.13-301.82-301.82-301.82H302.82C136.13,1,1,136.13,1,302.82s135.13,301.82,301.82,301.82h1657.29c166.69,0,301.82-135.13,301.82-301.82" fill="#F5F5F7"/>
</svg>
